<svg width="30" height="22" viewBox="0 0 30 22" fill="none" xmlns="http://www.w3.org/2000/svg">
<path d="M25.3961 1.8246C23.4837 0.981319 21.4337 0.358027 19.29 0.00360552C19.271 2.20986e-05 19.2512 0.00233139 19.2335 0.0102141C19.2158 0.0180967 19.2011 0.0311628 19.1913 0.0476026C18.9288 0.498573 18.6363 1.08642 18.4313 1.55084C16.1578 1.2187 13.8463 1.2187 11.5728 1.55084C11.3444 1.03615 11.087 0.534289 10.8015 0.0476026C10.7919 0.0309604 10.7772 0.0175988 10.7596 0.00930086C10.7419 0.00100297 10.7221 -0.00183665 10.7028 0.00116112C8.56035 0.355582 6.51041 0.978875 4.59672 1.82338C4.58025 1.83013 4.5663 1.84164 4.55672 1.85637C0.666832 7.44767 -0.399388 12.9009 0.124347 18.2856C0.125805 18.2988 0.129991 18.3116 0.136653 18.3231C0.143315 18.3347 0.152311 18.3448 0.163096 18.3528C2.43352 19.969 4.96588 21.2002 7.65413 21.9948C7.67287 22.0005 7.69291 22.0005 7.71164 21.9948C7.73038 21.9891 7.74692 21.9781 7.75913 21.9631C8.3376 21.2066 8.85022 20.4041 9.29158 19.564C9.29771 19.5525 9.30124 19.5399 9.30194 19.5269C9.30263 19.514 9.30048 19.5011 9.29562 19.489C9.29076 19.477 9.28331 19.4661 9.27377 19.4571C9.26423 19.4481 9.25283 19.4412 9.24033 19.4369C8.43286 19.1396 7.65049 18.7808 6.9004 18.3638C6.88692 18.3563 6.87557 18.3456 6.86735 18.3328C6.85913 18.3199 6.85431 18.3052 6.85332 18.2901C6.85233 18.275 6.8552 18.2598 6.86167 18.246C6.86814 18.2322 6.87801 18.2202 6.8904 18.2111C7.0479 18.0974 7.20539 17.9789 7.35539 17.8603C7.36889 17.8497 7.38515 17.8429 7.40237 17.8407C7.41958 17.8386 7.43707 17.8411 7.45289 17.8481C12.3615 20.004 17.6776 20.004 22.5287 17.8481C22.5446 17.8407 22.5622 17.8378 22.5797 17.8398C22.5971 17.8417 22.6137 17.8484 22.6274 17.8591C22.7774 17.9789 22.9337 18.0974 23.0924 18.2111C23.1049 18.22 23.115 18.2319 23.1217 18.2455C23.1283 18.2592 23.1314 18.2743 23.1307 18.2894C23.13 18.3046 23.1254 18.3193 23.1174 18.3323C23.1094 18.3453 23.0983 18.3561 23.0849 18.3638C22.3375 18.7843 21.56 19.1399 20.7437 19.4357C20.7312 19.4401 20.7198 19.4471 20.7103 19.4562C20.7007 19.4653 20.6933 19.4763 20.6884 19.4885C20.6836 19.5006 20.6814 19.5136 20.6821 19.5267C20.6828 19.5397 20.6864 19.5524 20.6925 19.564C21.1425 20.4036 21.6575 21.2029 22.2237 21.9618C22.2355 21.9774 22.2519 21.989 22.2707 21.9952C22.2895 22.0013 22.3097 22.0016 22.3287 21.996C25.0216 21.2037 27.5581 19.9719 29.831 18.3528C29.8421 18.3453 29.8514 18.3355 29.8583 18.3241C29.8652 18.3127 29.8695 18.3 29.871 18.2868C30.496 12.0613 28.8235 6.65206 25.4349 1.85882C25.4266 1.84324 25.4128 1.8311 25.3961 1.8246ZM10.0253 15.0066C8.54785 15.0066 7.32914 13.7002 7.32914 12.0979C7.32914 10.4945 8.52411 9.18922 10.0253 9.18922C11.5378 9.18922 12.7452 10.5055 12.7215 12.0979C12.7215 13.7014 11.5265 15.0066 10.0253 15.0066ZM19.9938 15.0066C18.5151 15.0066 17.2976 13.7002 17.2976 12.0979C17.2976 10.4945 18.4913 9.18922 19.9938 9.18922C21.5062 9.18922 22.7137 10.5055 22.6899 12.0979C22.6899 13.7014 21.5075 15.0066 19.9938 15.0066Z" fill="black"/>
</svg>
