<svg width="434" height="230" viewBox="0 0 434 230" fill="none" xmlns="http://www.w3.org/2000/svg">
<path d="M76.5086 13.0619H65.3685V0H58.0976V13.0619H47V22.4295H58.0976V59.6801H65.3685V22.4295H76.5086V13.0619Z" fill="white"/>
<path d="M59.5857 22.4294L58.0975 22.7373V57.613L61.7542 58.1847L59.5857 22.4294Z" fill="url(#paint0_linear_22_64)"/>
<path d="M58.0976 13.0619H47V22.4295H50.4016V14.4253L59.2456 13.5017L60.9889 0H58.0976V13.0619Z" fill="url(#paint1_linear_22_64)"/>
<path d="M9.03986 165.865H424.439C429.429 165.865 433.479 169.915 433.479 174.905V220.056C433.479 225.046 429.429 229.096 424.439 229.096H9.03986C4.04986 229.096 0 225.046 0 220.056V174.905C0 169.915 4.04986 165.865 9.03986 165.865V165.865Z" fill="white"/>
<path fill-rule="evenodd" clip-rule="evenodd" d="M26.1039 99.8525L33.5286 159.275C33.9866 164.096 38.0124 167.856 42.9542 167.856H383.576C388.301 167.856 392.375 164.337 392.953 159.54L400.402 99.8525H26.1039V99.8525ZM103.292 120.656C106.764 120.656 109.608 123.477 109.608 126.972C109.608 130.468 106.788 133.288 103.292 133.288H74.7021C71.2308 133.288 68.3863 130.468 68.3863 126.972C68.3863 123.477 71.2067 120.656 74.7021 120.656H103.292V120.656ZM328.493 133.264C325.022 133.264 322.177 130.443 322.177 126.948C322.177 123.453 324.998 120.632 328.493 120.632H357.083C360.554 120.632 363.399 123.453 363.399 126.948C363.399 130.443 360.579 133.264 357.083 133.264H328.493Z" fill="white"/>
<path fill-rule="evenodd" clip-rule="evenodd" d="M383.576 48H42.9543C38.9044 48.0241 35.168 50.6517 33.9386 54.7257L27.8638 74.6133H398.57L392.785 55.256C391.796 51.0856 388.036 48 383.576 48Z" fill="white"/>
<path fill-rule="evenodd" clip-rule="evenodd" d="M20.704 93.5367H411.081C414.552 93.5367 417.397 90.6922 417.397 87.2209C417.397 83.7496 414.552 80.905 411.081 80.905H20.704C17.2327 80.905 14.3882 83.7496 14.3882 87.2209C14.3882 90.6922 17.2327 93.5367 20.704 93.5367Z" fill="white"/>
<path d="M164.125 160.175C165.005 160.015 166.205 160.015 167.565 160.015C162.685 159.775 163.085 154.895 163.085 150.335C163.085 141.855 165.805 137.215 169.645 137.215H172.605C181.725 137.215 189.565 142.655 191.485 149.935L192.525 149.695L188.925 136.175H152.205V137.215C155.965 137.215 158.765 141.855 158.765 150.335C158.765 155.855 161.245 158.895 164.125 160.175C159.805 160.895 158.765 163.535 158.765 173.375V177.935C158.765 186.415 155.965 190.975 152.205 190.975V192.095H169.645V190.975C165.805 190.975 163.085 186.415 163.085 177.935V173.375C163.085 163.215 162.045 161.215 167.565 161.055H167.965C177.405 161.055 178.365 164.175 178.365 169.215H179.405V155.055H178.365C178.365 158.495 177.485 160.015 167.965 160.015L164.125 160.175ZM234.653 190.975C230.813 190.975 228.973 186.655 225.693 178.175L209.053 134.655L205.293 136.815L202.573 138.415L203.133 139.375C205.293 139.135 206.173 140.415 205.613 144.335C203.853 152.255 195.613 162.095 191.053 169.215C181.133 185.135 191.133 196.255 200.333 192.015C209.853 187.695 204.253 167.855 212.333 167.055C216.013 166.735 218.493 171.375 219.853 174.815L221.053 178.095C224.333 186.575 223.293 190.975 220.013 190.975V192.095H234.653V190.975ZM217.373 168.335C215.933 166.815 214.253 165.775 212.253 165.935C202.973 166.895 207.693 182.495 198.733 186.655C190.413 190.415 185.373 180.335 192.013 169.855C197.293 161.455 207.293 149.935 206.973 141.215L217.373 168.335ZM258.249 193.295C260.729 193.215 263.049 192.495 265.289 191.375C265.689 195.935 266.249 198.175 269.689 199.775C272.169 200.895 275.929 201.535 281.289 196.415L280.889 195.855C272.889 198.255 272.569 192.895 270.969 186.655C275.609 181.295 278.569 173.215 278.569 164.095C278.569 147.935 269.289 134.895 257.769 134.895C246.329 134.895 237.049 147.935 237.049 164.095C237.049 179.455 245.529 192.095 256.249 193.215C256.889 193.295 257.529 193.375 258.249 193.375V193.295ZM247.689 185.295C244.649 180.175 242.969 172.575 242.969 164.095C242.969 148.575 248.729 135.935 257.769 135.935C266.889 135.935 272.729 148.575 272.729 164.095C272.729 171.055 271.529 177.375 269.449 182.255C268.329 179.695 266.649 177.375 263.689 175.615C252.969 169.215 246.489 178.015 247.689 185.295ZM265.689 188.415C265.049 189.135 264.329 189.695 263.609 190.255C263.609 190.255 257.449 192.895 253.769 186.495C250.089 180.175 258.169 173.135 262.649 176.335C266.569 179.215 266.249 183.855 265.689 188.415Z" fill="black"/>
<defs>
<linearGradient id="paint0_linear_22_64" x1="59.9259" y1="64.6057" x2="59.9259" y2="-2.46291" gradientUnits="userSpaceOnUse">
<stop stop-color="#535353" stop-opacity="0"/>
<stop offset="1" stop-color="#585858"/>
</linearGradient>
<linearGradient id="paint1_linear_22_64" x1="54.0157" y1="26.4316" x2="54.0157" y2="-15.6127" gradientUnits="userSpaceOnUse">
<stop stop-color="#6C6C6C" stop-opacity="0"/>
<stop offset="1" stop-color="#AAAAAA"/>
</linearGradient>
</defs>
</svg>
