<svg width="49" height="85" viewBox="0 0 49 85" fill="none" xmlns="http://www.w3.org/2000/svg">
<path fill-rule="evenodd" clip-rule="evenodd" d="M48.6103 17.3384L35.4828 0.808308C35.1651 0.321433 34.615 0 33.9937 0H15.0043V0.0094539C14.4827 0.0094539 13.9657 0.241074 13.6148 0.680681L0.468312 17.2345C0.0367366 17.7024 -0.124511 18.3831 0.103133 19.0212L6.00766 35.6648L9.95349 83.3172C10.0009 84.2531 10.7787 85 11.7272 85H37.2755C38.1909 85 38.9687 84.3004 39.0445 83.3739L42.9951 35.6601L48.8996 19.0165C49.0941 18.4635 49.0087 17.8301 48.6198 17.3337L48.6103 17.3384ZM15.4027 19.0354H22.7158V12.0537H26.2727V19.0354H33.5858V22.5806H26.2727V44.2584H22.7158V22.5759H15.4027V19.0307V19.0354Z" fill="#2D3D2B"/>
</svg>
