<svg width="51" height="37" viewBox="0 0 51 37" fill="none" xmlns="http://www.w3.org/2000/svg">
<path d="M50.904 1.78181V4.72605C50.9029 5.3107 50.4294 5.78423 49.8448 5.78523H1.96317C1.37852 5.78416 0.904995 5.31067 0.903992 4.72605V1.78181C0.904704 1.19716 1.37855 0.723357 1.96317 0.722992H49.8448C50.4295 0.723348 50.9033 1.19719 50.904 1.78181V1.78181ZM49.8448 31.0993H1.96317C1.37852 31.1003 0.904995 31.5738 0.903992 32.1584V35.1027C0.905061 35.687 1.37855 36.1609 1.96317 36.1615H49.8448C50.4295 36.1608 50.903 35.6869 50.904 35.1027V32.1584C50.9029 31.5738 50.4294 31.1003 49.8448 31.0993ZM49.8448 15.9106H1.96317C1.37852 15.9117 0.904995 16.3852 0.903992 16.9698V19.914C0.905061 20.4987 1.37855 20.9722 1.96317 20.9732H49.8448C50.4295 20.9722 50.903 20.4987 50.904 19.914V16.9698C50.9029 16.3852 50.4294 15.9116 49.8448 15.9106V15.9106Z" fill="#6BAE61"/>
</svg>
