<svg width="300" height="353" viewBox="0 0 300 353" fill="none" xmlns="http://www.w3.org/2000/svg">
<path fill-rule="evenodd" clip-rule="evenodd" d="M290.812 299.969H8.47669C3.79281 299.969 0 303.762 0 308.446V344.523C0 349.207 3.79281 353 8.47669 353H290.812C295.496 353 299.289 349.207 299.289 344.523V308.446C299.289 303.762 295.496 299.969 290.812 299.969V299.969Z" fill="white"/>
<path fill-rule="evenodd" clip-rule="evenodd" d="M28.4127 185.002V198.14C28.4127 202.824 32.2055 206.617 36.8894 206.617H51.6265V349.395H248.19V206.617H262.927C267.611 206.617 271.404 202.824 271.404 198.14V185.002C280.749 182.237 287.192 175.977 290.733 168.391C292.812 163.959 293.841 159.138 293.841 154.363C293.841 149.587 292.812 144.789 290.733 140.334C287.192 132.771 280.726 126.488 271.404 123.723V110.585C271.404 105.902 267.611 102.109 262.927 102.109H248.19V95.4142C248.19 69.1387 237.108 45.2395 219.218 27.9434C201.42 10.7158 176.881 0 149.897 0C122.913 0 98.3969 10.7158 80.5752 27.9662C62.7079 45.2623 51.6037 69.1387 51.6037 95.4371V102.132H36.8666C32.1827 102.132 28.3899 105.924 28.3899 110.608V123.746C19.0449 126.511 12.6017 132.771 9.06026 140.357C6.98107 144.789 5.93005 149.61 5.93005 154.386C5.93005 159.161 6.98107 163.959 9.06026 168.414C12.6017 175.977 19.0678 182.26 28.3899 185.025L28.4127 185.002Z" fill="white"/>
<path d="M93.8638 116.04C95.1038 106.6 100.784 106.24 102.584 97.76V112.92C102.584 119 100.984 119.48 98.4637 119.48V120H107.224V119.48C104.704 119.48 103.104 119 103.104 112.92V98.96C103.104 92.88 104.704 92.44 107.224 92.44V91.88H98.4637V92.44C100.264 92.44 100.864 93.56 100.784 95.04C99.7438 104.76 93.6638 104.96 91.9438 114.36C90.7438 102.92 85.8238 102.88 84.6238 95.56C84.4238 93.8 85.2638 92.6 87.6638 92.6V92.04H78.9438V92.6C80.8638 92.6 82.2238 94.88 82.2238 99.12V112.92C82.2238 117.16 80.8638 119.48 78.9438 119.48V120H87.6638V119.48C85.7838 119.48 84.3838 117.16 84.3838 112.92V97.36C85.9838 103.96 90.6238 103.64 91.3838 116.36C91.4638 119.04 90.9038 119.48 89.5838 119.48V120H95.2238V119.48C94.0238 119.48 93.6238 118.2 93.8638 116.04ZM124.893 103.84C125.453 102.72 126.453 101.96 127.973 101.96V101.44H122.453V101.96C124.693 101.96 124.653 102.88 124.293 103.92L124.013 104.64L119.733 115.92L114.973 104.52C114.173 102.6 114.213 101.96 115.693 101.96V101.44H109.413V101.96C111.213 101.96 112.013 102.88 112.773 104.64L118.693 118.72L118.213 120C117.253 122.52 115.853 124.76 114.213 124.76C113.533 124.76 113.013 123.28 113.013 120.8H109.693C109.693 120.8 109.573 125.48 113.893 125.48C116.093 125.48 117.413 123.32 118.773 120L124.893 103.84ZM135.338 101.12C138.698 101.12 140.938 103.76 141.898 105.92L142.338 107.12L142.858 106.92L140.538 100.6L140.058 100.76C139.178 102.28 138.978 100.56 135.338 100.56C130.658 100.56 130.018 103.72 130.018 105.24C130.018 108.68 133.738 110.72 136.378 111.52C140.538 112.84 142.578 115.28 141.778 117.4C141.298 118.6 139.978 119.44 137.778 119.44C134.138 119.44 130.938 116.36 129.938 114.12L129.658 113.44L129.178 113.64L131.498 119.96L131.978 119.76C133.098 117.84 134.138 120 137.778 120C140.298 120 141.618 119.08 142.338 118C144.898 114.12 142.218 110.28 136.898 108.76C134.738 108.12 130.338 106.48 130.938 103.44C131.218 102.12 132.658 101.12 135.338 101.12ZM153.81 101.48V100.96H149.17V94.72H148.65C148.65 98.96 147.01 100.96 144.53 100.96V101.48H147.13V115.48C147.13 120.96 153.61 121.6 154.89 116.72L154.37 116.56C153.37 120.36 149.17 120.04 149.17 115.48V101.48H153.81ZM171.572 109.16C170.932 104.76 167.732 101.44 163.892 101.44C159.572 101.44 156.092 105.6 156.092 110.72C156.092 115.84 159.572 120 163.892 120C166.812 120 169.332 118.12 170.692 115.28L169.692 114.32C169.292 116.72 168.012 118.56 166.132 119.08C164.172 119.6 162.092 118.56 160.492 116.6C159.652 115.52 159.252 113.84 159.972 112.44C161.372 109.76 166.372 109.16 170.492 109.16H171.572ZM159.052 114.24C158.772 113.6 158.532 112.92 158.332 112.2C157.092 107.6 158.572 103.2 161.652 102.36C164.572 101.6 167.892 104.36 169.252 108.64C165.212 108.76 160.892 109.56 159.492 112.2C159.132 112.84 159.012 113.56 159.052 114.24ZM177.252 101.2L172.772 102.4L172.892 102.92H172.932C174.812 102.96 175.212 105.24 175.212 109.44V112.92C175.212 117.2 174.812 119.48 172.892 119.48V120H179.652V119.48H179.532C177.652 119.48 177.252 117.2 177.252 112.92V106.6C178.172 105.36 179.292 104.24 180.772 103.72C182.172 103.28 183.172 103.72 183.652 105.2L186.452 102.68C184.012 98.36 179.772 102.4 177.252 105.68V101.2ZM205.127 103.84C205.687 102.72 206.687 101.96 208.207 101.96V101.44H202.687V101.96C204.927 101.96 204.887 102.88 204.527 103.92L204.247 104.64L199.967 115.92L195.207 104.52C194.407 102.6 194.447 101.96 195.927 101.96V101.44H189.647V101.96C191.447 101.96 192.247 102.88 193.007 104.64L198.927 118.72L198.447 120C197.487 122.52 196.087 124.76 194.447 124.76C193.767 124.76 193.247 123.28 193.247 120.8H189.927C189.927 120.8 189.807 125.48 194.127 125.48C196.327 125.48 197.647 123.32 199.007 120L205.127 103.84ZM105.709 146.84C102.589 147.08 100.029 149.12 99.4686 151.6V151.76L98.7486 155.52L97.9086 160.2L98.4286 160.28C99.2286 156 101.389 160 107.629 160C112.789 160 116.109 156.68 115.989 151.24C115.749 141.64 101.749 146.2 100.069 137.6C99.3086 133.72 101.709 131.32 106.109 131.32C111.669 131.32 113.549 135.96 114.509 139.08L115.029 138.96L112.949 130.48L112.429 130.64C111.669 133.4 111.829 130.76 106.109 130.76C101.589 130.76 98.2686 133.76 98.4286 138.48C98.6686 144.04 102.109 145.72 105.709 146.84ZM100.509 150.56C102.109 147.56 105.829 146.96 107.949 147.52C111.309 148.52 114.149 149.72 113.749 154.08C113.429 157.28 111.389 159.44 107.629 159.44C102.069 159.44 98.7486 154.08 100.509 150.56ZM117.405 133.76H117.445C119.285 133.8 119.685 136.08 119.685 140.32V152.92C119.685 157.2 119.285 159.48 117.405 159.48V160H124.125V159.48H124.045C122.125 159.48 121.725 157.2 121.725 152.92V132.08L117.245 133.28L117.405 133.76ZM134.005 141.96C131.445 141.96 129.965 142.96 128.885 144.04L124.885 148.04C124.085 149.04 124.565 149.96 125.525 149.2L125.765 149C126.125 148.68 126.485 148.44 126.725 148.48C127.485 148.48 129.725 151.8 131.685 154.96C133.605 157.92 135.365 159.48 136.645 159.48V160H129.925V159.48C131.805 159.48 131.485 158.44 129.485 154.96C128.365 153.16 127.245 151.32 126.485 150.4C125.845 149.6 125.965 149.52 125.325 150.2C124.685 150.8 123.845 151.36 123.205 150.64C122.565 149.96 123.245 148.88 124.085 148.08L128.285 143.84C129.365 142.8 129.445 141.96 127.245 141.96V141.44H134.005V141.96ZM140.31 153.8C140.31 161.24 144.07 163 150.87 157.72V160H155.35V159.48H155.23C153.31 159.48 152.95 157.2 152.95 152.96V141.2L148.47 142.4L148.59 142.92H148.63C150.51 142.96 150.87 145.24 150.87 149.44V156.8C146.83 159.52 142.35 160.76 142.35 153.8V141.2L137.87 142.4L138.03 142.92H138.07C139.91 142.96 140.31 145.24 140.31 149.44V153.8ZM157.518 133.28L157.678 133.76H157.718C159.558 133.8 159.958 136.08 159.958 140.32V152.92C159.958 157.2 159.558 159.48 157.678 159.48V160H164.398V159.48H164.318C162.398 159.48 161.998 157.2 161.998 152.92V132.08L157.518 133.28ZM167.01 133.28L167.17 133.76H167.21C169.05 133.8 169.45 136.08 169.45 140.32V152.92C169.45 157.2 169.05 159.48 167.17 159.48V160H173.89V159.48H173.81C171.89 159.48 171.49 157.2 171.49 152.92V132.08L167.01 133.28ZM181.256 141.12C184.616 141.12 186.856 143.76 187.816 145.92L188.256 147.12L188.776 146.92L186.456 140.6L185.976 140.76C185.096 142.28 184.896 140.56 181.256 140.56C176.576 140.56 175.936 143.72 175.936 145.24C175.936 148.68 179.656 150.72 182.296 151.52C186.456 152.84 188.496 155.28 187.696 157.4C187.216 158.6 185.896 159.44 183.696 159.44C180.056 159.44 176.856 156.36 175.856 154.12L175.576 153.44L175.096 153.64L177.416 159.96L177.896 159.76C179.016 157.84 180.056 160 183.696 160C186.216 160 187.536 159.08 188.256 158C190.816 154.12 188.136 150.28 182.816 148.76C180.656 148.12 176.256 146.48 176.856 143.44C177.136 142.12 178.576 141.12 181.256 141.12ZM97.3286 191.12C94.2886 186.36 92.5286 186.28 90.9286 188.12L90.5286 188.56C89.5286 189.52 88.6886 189 89.2486 188.08C93.5286 184.56 100.369 186.12 100.369 179.6C100.369 176.28 98.8886 171.64 89.1286 172.04H80.4086V172.6C82.3286 172.6 83.6886 174.88 83.6886 179.12V192.92C83.6886 197.16 82.3286 199.48 80.4086 199.48V200H89.1286V199.48C87.2486 199.48 85.8486 197.16 85.8486 192.92V179.12C85.8486 174.88 87.2486 172.6 89.1286 172.6C93.7286 172.6 97.6486 174.08 97.6486 179.6C97.6486 185.16 92.3686 184.16 88.2886 188.24C87.4486 189.08 86.6086 189.96 87.4086 190.84C88.1686 191.72 89.0886 190.8 89.8486 190L91.3286 188.48C92.4086 187.36 92.6886 187.2 95.5686 192.32L96.7286 194.24C99.3286 198.68 98.5686 199.36 97.1686 199.48H95.8086V200H104.529V199.48C103.209 199.08 100.289 196.08 97.3286 191.08V191.12ZM111.529 181.44C107.209 181.44 103.729 185.6 103.729 190.72C103.729 195.84 107.209 200 111.529 200C115.809 200 119.329 195.84 119.329 190.72C119.329 185.6 115.809 181.44 111.529 181.44ZM109.289 182.36C112.329 181.56 115.809 184.64 117.049 189.24C118.289 193.84 116.809 198.24 113.729 199.08C110.689 199.88 107.209 196.84 105.969 192.2C104.729 187.6 106.209 183.2 109.289 182.36ZM123.086 186.36C128.806 182.52 131.566 188.52 126.246 190.16C118.366 192.6 119.486 200 124.686 200C126.526 200 128.046 199.2 129.286 198.24C130.326 197.44 131.366 196.24 132.126 195.04V195.44C132.126 199.44 134.566 202.04 136.806 198.16L136.326 197.88C136.086 198.28 135.646 198.92 135.126 198.68C134.406 198.4 134.166 196.8 134.166 195.44V186.24C134.166 183.16 131.606 180.92 128.246 180.92C124.886 180.92 122.406 183.36 123.086 186.36ZM132.126 194C131.926 194.4 130.806 196.36 128.966 197.8C126.446 199.76 122.406 199.16 122.926 195.56C123.606 190.8 129.766 191.32 129.646 187.28C129.606 186.2 129.086 185.32 128.086 184.88C127.326 184.52 126.326 184.44 125.126 184.76C124.926 183.16 126.326 181.44 128.246 181.44C131.126 181.44 132.126 183.24 132.126 186.24V194ZM150.146 200H154.586V199.48H154.506C152.586 199.48 152.186 197.2 152.186 192.92V172.08L147.706 173.28L147.866 173.76H147.906C149.746 173.8 150.146 176.12 150.146 180.32V186.6C149.306 183.32 147.306 180.44 143.386 181.6C139.786 182.68 138.026 187.08 138.026 190.72C138.026 195.84 141.506 200 145.826 200C147.426 200 148.906 199.44 150.146 198.44V200ZM143.546 182.12C148.786 180.72 150.146 187.04 150.146 190.96V197.72C149.586 198.4 148.866 198.84 148.066 199.08C144.986 199.88 141.506 196.84 140.266 192.2C138.946 187.24 140.466 182.96 143.546 182.12ZM178.536 199.48V200H185.296V199.48C183.376 199.48 183.016 197.2 183.016 192.92L182.976 193.04V191.04C182.976 182.44 179.776 181.64 177.936 181.4C177.896 181.4 177.816 181.4 177.776 181.36H177.736C174.216 181 172.536 184.24 171.896 187.56C171.136 182.2 168.616 181.6 167.056 181.4C167.016 181.4 166.976 181.4 166.896 181.36H166.856C163.696 181.04 162.016 183.64 161.256 186.6V181.44L156.776 182.64L156.896 183.16H156.936C158.816 183.16 159.176 185.48 159.176 189.68H159.216V193L159.176 192.92C159.176 197.2 158.816 199.48 156.896 199.48V200H163.656V199.48H163.536C161.776 199.48 161.336 197.52 161.256 193.92V190.96C161.256 187.32 162.416 181.56 166.856 181.96C168.416 182.12 170.056 183.36 170.056 190.2V194.2C169.976 197.64 169.496 199.48 167.776 199.48H167.696V200H174.416V199.48C172.536 199.48 172.136 197.24 172.136 193.04V190.96C172.136 187.32 173.296 181.56 177.736 181.96C179.296 182.12 180.936 183.36 180.936 190.2V194.2C180.856 197.64 180.376 199.48 178.656 199.48H178.536ZM189.062 186.36C194.782 182.52 197.542 188.52 192.222 190.16C184.342 192.6 185.462 200 190.662 200C192.502 200 194.022 199.2 195.262 198.24C196.302 197.44 197.342 196.24 198.102 195.04V195.44C198.102 199.44 200.542 202.04 202.782 198.16L202.302 197.88C202.062 198.28 201.622 198.92 201.102 198.68C200.382 198.4 200.142 196.8 200.142 195.44V186.24C200.142 183.16 197.582 180.92 194.222 180.92C190.862 180.92 188.382 183.36 189.062 186.36ZM198.102 194C197.902 194.4 196.782 196.36 194.942 197.8C192.422 199.76 188.382 199.16 188.902 195.56C189.582 190.8 195.742 191.32 195.622 187.28C195.582 186.2 195.062 185.32 194.062 184.88C193.302 184.52 192.302 184.44 191.102 184.76C190.902 183.16 192.302 181.44 194.222 181.44C197.102 181.44 198.102 183.24 198.102 186.24V194ZM203.027 206.24V206.76H209.867V206.24H209.747C207.867 206.24 207.467 203.92 207.467 199.68V198.48C208.707 199.44 210.187 200 211.787 200C216.067 200 219.587 195.84 219.587 190.72C219.587 187.08 217.827 182.68 214.187 181.6C210.347 180.48 208.347 183.24 207.467 186.48V181.44L202.987 182.64L203.147 183.16H203.187C205.027 183.16 205.427 185.48 205.427 189.68V199.68C205.427 203.92 205.027 206.24 203.147 206.24H203.027ZM214.067 182.12C217.107 182.96 218.667 187.24 217.307 192.2C216.067 196.84 212.587 199.88 209.547 199.08C208.747 198.84 208.027 198.4 207.467 197.76V189.88C207.707 186 209.227 180.84 214.067 182.12Z" fill="black"/>
</svg>
