<svg width="269" height="368" viewBox="0 0 269 368" fill="none" xmlns="http://www.w3.org/2000/svg">
<path fill-rule="evenodd" clip-rule="evenodd" d="M252.151 65.152C243.416 57.4574 231.549 51.2774 217.72 47.3796C215.379 34.8985 206.265 23.6898 192.847 15.3287C177.594 5.85681 156.866 0 134.082 0C111.297 0 90.5375 5.85681 75.3161 15.3287C61.8668 23.6898 52.7845 34.8985 50.4428 47.3796C36.6137 51.2774 24.7151 57.4574 16.0126 65.152C5.94934 74.018 0 84.8834 0 96.5769V368C0 368 81.7098 368 134.066 368C186.422 368 268.132 368 268.132 368V96.5769C268.132 84.8834 262.182 74.018 252.151 65.152Z" fill="white"/>
</svg>
