<svg width="546" height="880" viewBox="0 0 546 880" fill="none" xmlns="http://www.w3.org/2000/svg">
<path d="M79.0905 608.707C85.5174 610.192 90.0903 616.13 91.5735 623.924L113.202 628.749C115.551 625.656 118.27 623.182 121.36 621.697L125.315 603.882C120.989 598.438 119.135 589.778 121.112 580.747C124.202 567.262 134.584 558.107 144.348 560.334C154.112 562.561 159.674 575.303 156.584 588.789C154.606 597.82 149.168 604.872 142.988 607.841L139.033 625.656C141.135 628.254 142.618 631.594 143.359 635.553L164.988 640.378C169.685 634.069 176.359 630.481 182.786 631.966C192.549 634.193 198.111 646.935 195.021 660.42C191.931 673.906 181.55 683.061 171.786 680.834C165.359 679.349 160.786 673.411 159.303 665.617L137.674 660.792C135.326 663.885 132.607 666.359 129.517 667.843L110.978 750.486C115.303 755.93 117.157 764.466 115.18 773.621C112.09 787.106 101.708 796.261 91.9442 794.034C82.1803 791.808 76.6186 779.065 79.7085 765.58C81.6859 756.548 87.1241 749.496 93.3038 746.527L111.843 663.885C109.742 661.286 108.259 657.822 107.517 653.987L85.8881 649.162C81.1916 655.472 74.5175 659.06 68.0907 657.575C58.3268 655.348 52.7651 642.605 55.8549 629.12C58.9447 615.635 69.3266 606.48 79.0905 608.707V608.707Z" fill="#B7B7B7"/>
<path d="M129.64 667.967L111.101 750.61C115.427 756.053 117.281 764.59 115.304 773.745C115.056 774.982 114.562 776.219 114.191 777.456L102.821 774.982V749.744L125.562 664.627L129.64 668.091V667.967Z" fill="url(#paint0_linear_21_35)"/>
<path d="M164.247 676.133C166.471 674.4 168.82 672.421 171.168 670.07C181.426 659.678 166.471 645.946 166.471 645.946L131.494 637.162V617.12C131.494 617.12 141.753 597.078 147.438 584.706C150.281 578.52 146.202 568.623 141.505 560.334C142.494 560.334 143.483 560.334 144.472 560.581C154.236 562.808 159.797 575.551 156.707 589.036C154.73 598.067 149.292 605.119 143.112 608.088L139.157 625.904C141.258 628.502 142.741 631.842 143.483 635.801L165.112 640.626C169.808 634.316 176.482 630.729 182.909 632.213C192.673 634.44 198.235 647.183 195.145 660.668C192.055 674.153 181.673 683.308 171.909 681.081C168.82 680.339 166.348 678.607 164.247 676.133V676.133Z" fill="url(#paint1_linear_21_35)"/>
<path d="M76.3475 816L40.4873 717.9L49.7415 492L206.925 318L313.487 259.5L400.246 274.98L461.555 226.5L546 237.12L460.398 207L400.246 253.5L313.487 225L200.123 268.5L229.32 207L293.267 162.48L223.258 187.5L171.203 274.98L111.051 304.5L90.2288 226.5L152.695 123L204.75 108L240.61 46.5L334.448 37.5L237.14 27L195.496 81L146.911 88.5L54.3687 213.18L40.4873 286.5L27.7627 150L64.7797 46.5L70.5636 0L38.1737 68.88L16.1949 90V0H6.67572e-06V816H76.3475Z" fill="white"/>
<path d="M19.2952 408L40.1172 436.98L64.7798 331.02L70.9339 403.02L190.267 297.72L310.572 237.12L399.691 266.28L460.398 218.28L539.106 236.22L461.555 226.5L400.246 274.98L313.487 259.5L206.925 318L49.7416 492L40.4874 717.9L76.3476 816H44.9757L16.195 717.9L19.2952 408Z" fill="url(#paint2_linear_21_35)"/>
<path d="M242.137 36L317.606 39.12L240.61 46.5L204.75 108L152.695 123L90.229 226.5L111.051 304.5L77.1342 315V223.98L139.6 108L200.493 99L242.137 36Z" fill="url(#paint3_linear_21_35)"/>
<path d="M60.4293 691C27.0304 691 0 718.057 0 751.489V879.551H121V751.631C121 718.199 93.9696 691.142 60.5707 691.142L60.4293 691Z" fill="#D4D4D4"/>
<path d="M71.0433 692.133C67.6468 691.567 64.1088 691 60.4293 691C27.0304 691 0 718.057 0 751.489V879.551H21.2281V751.631C21.2281 721.882 42.7392 697.233 71.0433 692.133V692.133Z" fill="url(#paint4_linear_21_35)"/>
<defs>
<linearGradient id="paint0_linear_21_35" x1="116.169" y1="775.601" x2="116.169" y2="530.765" gradientUnits="userSpaceOnUse">
<stop stop-color="#676767" stop-opacity="0"/>
<stop offset="1" stop-color="#3D3D3D"/>
</linearGradient>
<linearGradient id="paint1_linear_21_35" x1="163.876" y1="679.597" x2="163.876" y2="416.575" gradientUnits="userSpaceOnUse">
<stop stop-color="#151515" stop-opacity="0"/>
<stop offset="1" stop-color="#4A4A4A"/>
</linearGradient>
<linearGradient id="paint2_linear_21_35" x1="277.673" y1="807" x2="277.673" y2="-490.56" gradientUnits="userSpaceOnUse">
<stop stop-color="#B9B9B9" stop-opacity="0"/>
<stop offset="1" stop-color="#121212"/>
</linearGradient>
<linearGradient id="paint3_linear_21_35" x1="197.347" y1="310.8" x2="197.347" y2="-294.84" gradientUnits="userSpaceOnUse">
<stop stop-color="#626262" stop-opacity="0"/>
<stop offset="1" stop-color="#464646"/>
</linearGradient>
<linearGradient id="paint4_linear_21_35" x1="35.3801" y1="952.79" x2="35.3801" y2="471.992" gradientUnits="userSpaceOnUse">
<stop stop-color="#949494" stop-opacity="0"/>
<stop offset="1" stop-color="#303030"/>
</linearGradient>
</defs>
</svg>
