<svg width="507" height="816" viewBox="0 0 507 816" fill="none" xmlns="http://www.w3.org/2000/svg">
<path d="M436.106 816L469.405 717.9L460.811 492L314.856 318L215.905 259.5L135.343 274.98L78.4131 226.5L0 237.12L79.4873 207L135.343 253.5L215.905 225L321.172 268.5L294.06 207L234.681 162.48L299.689 187.5L348.025 274.98L403.881 304.5L423.216 226.5L365.212 123L316.875 108L283.576 46.5L196.441 37.5L286.799 27L325.468 81L370.583 88.5L456.515 213.18L469.405 286.5L481.22 150L446.847 46.5L441.477 0L471.553 68.88L491.962 90V0H507V816H436.106Z" fill="white"/>
<path d="M489.083 408L469.748 436.98L446.847 331.02L441.133 403.02L330.323 297.72L218.611 237.12L135.859 266.28L79.4872 218.28L6.40186 236.22L78.413 226.5L135.343 274.98L215.905 259.5L314.856 318L460.811 492L469.405 717.9L436.106 816H465.237L491.962 717.9L489.083 408Z" fill="url(#paint0_linear_21_36)"/>
<path d="M282.158 36L212.081 39.12L283.576 46.5L316.875 108L365.212 123L423.216 226.5L403.881 304.5L435.375 315V223.98L377.371 108L320.828 99L282.158 36Z" fill="url(#paint1_linear_21_36)"/>
<defs>
<linearGradient id="paint0_linear_21_36" x1="249.16" y1="807" x2="249.16" y2="-490.56" gradientUnits="userSpaceOnUse">
<stop stop-color="#B9B9B9" stop-opacity="0"/>
<stop offset="1" stop-color="#121212"/>
</linearGradient>
<linearGradient id="paint1_linear_21_36" x1="323.749" y1="310.8" x2="323.749" y2="-294.84" gradientUnits="userSpaceOnUse">
<stop stop-color="#626262" stop-opacity="0"/>
<stop offset="1" stop-color="#464646"/>
</linearGradient>
</defs>
</svg>
